<?xml version="1.0" encoding="utf-8"?>
<svg version="1.1" xmlns:xlink="http://www.w3.org/1999/xlink" width="152px" height="88px" xmlns="http://www.w3.org/2000/svg">
  <g transform="matrix(1 0 0 1 -2212 -1923 )">
    <path d="M 2212 1923  L 2364 1923  L 2364 2011  L 2212 2011  L 2212 1923  " fill-rule="nonzero" fill="#cccccc" stroke="none" />
    <path d="M 2218 1929  L 2358 1929  L 2358 2005  L 2218 2005  L 2218 1929  " fill-rule="nonzero" fill="#ffffff" stroke="none" />
    <path d="M 2297.64 1949.4  C 2293.944 1949.4  2291.04 1946.496  2291.04 1942.8  C 2291.04 1939.104  2293.944 1936.2  2297.64 1936.2  C 2301.336 1936.2  2304.24 1939.104  2304.24 1942.8  C 2304.24 1946.496  2301.336 1949.4  2297.64 1949.4  " fill-rule="nonzero" fill="#cccccc" stroke="none" />
    <path d="M 2220 2003  L 2220 1963.4  L 2254 1945.4  L 2301.6 1977.98947368421  L 2328.8 1956.2  L 2356 1977.98947368421  L 2356 2003  L 2220 2003  " fill-rule="nonzero" fill="#169bd5" stroke="none" />
  </g>
</svg>