<?xml version="1.0" encoding="utf-8"?>
<svg version="1.1" xmlns:xlink="http://www.w3.org/1999/xlink" width="12px" height="12px" viewBox="2294 1260.5  12 12" xmlns="http://www.w3.org/2000/svg">
  <path d="M 2300 1260.5  C 2303.36 1260.5  2306 1263.14  2306 1266.5  C 2306 1269.86  2303.36 1272.5  2300 1272.5  C 2296.64 1272.5  2294 1269.86  2294 1266.5  C 2294 1263.14  2296.64 1260.5  2300 1260.5  Z " fill-rule="nonzero" fill="#ffffff" stroke="none" />
  <path d="M 2300 1261  C 2303.08 1261  2305.5 1263.42  2305.5 1266.5  C 2305.5 1269.58  2303.08 1272  2300 1272  C 2296.92 1272  2294.5 1269.58  2294.5 1266.5  C 2294.5 1263.42  2296.92 1261  2300 1261  Z " stroke-width="1" stroke="#009688" fill="none" />
  <path d="M 2300 1269.5  C 2298.32 1269.5  2297 1268.18  2297 1266.5  C 2297 1264.82  2298.32 1263.5  2300 1263.5  C 2301.68 1263.5  2303 1264.82  2303 1266.5  C 2303 1268.18  2301.68 1269.5  2300 1269.5  " fill-rule="nonzero" fill="#009688" stroke="none" />
</svg>