<?xml version="1.0" encoding="utf-8"?>
<svg version="1.1" xmlns:xlink="http://www.w3.org/1999/xlink" width="12px" height="12px" viewBox="2198 1260.5  12 12" xmlns="http://www.w3.org/2000/svg">
  <path d="M 2204 1260.5  C 2207.36 1260.5  2210 1263.14  2210 1266.5  C 2210 1269.86  2207.36 1272.5  2204 1272.5  C 2200.64 1272.5  2198 1269.86  2198 1266.5  C 2198 1263.14  2200.64 1260.5  2204 1260.5  Z " fill-rule="nonzero" fill="#f0f0f0" stroke="none" />
  <path d="M 2204 1261  C 2207.08 1261  2209.5 1263.42  2209.5 1266.5  C 2209.5 1269.58  2207.08 1272  2204 1272  C 2200.92 1272  2198.5 1269.58  2198.5 1266.5  C 2198.5 1263.42  2200.92 1261  2204 1261  Z " stroke-width="1" stroke="#009688" fill="none" />
  <path d="M 2204 1269.5  C 2202.32 1269.5  2201 1268.18  2201 1266.5  C 2201 1264.82  2202.32 1263.5  2204 1263.5  C 2205.68 1263.5  2207 1264.82  2207 1266.5  C 2207 1268.18  2205.68 1269.5  2204 1269.5  " fill-rule="nonzero" fill="#009688" stroke="none" />
</svg>