<?xml version="1.0" encoding="utf-8"?>
<svg version="1.1" xmlns:xlink="http://www.w3.org/1999/xlink" width="300px" height="288px" xmlns="http://www.w3.org/2000/svg">
  <g transform="matrix(1 0 0 1 -3802 -127 )">
    <path d="M 3802 127  L 4102 127  L 4102 415  L 3802 415  L 3802 127  " fill-rule="nonzero" fill="#cccccc" stroke="none" />
    <path d="M 3822 147  L 4082 147  L 4082 395  L 3822 395  L 3822 147  " fill-rule="nonzero" fill="#ffffff" stroke="none" />
    <path d="M 3979.6 213.4  C 3967.504 213.4  3958 203.896  3958 191.8  C 3958 179.704  3967.504 170.2  3979.6 170.2  C 3991.696 170.2  4001.2 179.704  4001.2 191.8  C 4001.2 203.896  3991.696 213.4  3979.6 213.4  " fill-rule="nonzero" fill="#cccccc" stroke="none" />
    <path d="M 3829 388  L 3829 259.3  L 3890.5 200.8  L 3976.6 253.216  L 4025.8 235.9  L 4075 253.216  L 4075 388  L 3829 388  " fill-rule="nonzero" fill="#169bd5" stroke="none" />
  </g>
</svg>