<?xml version="1.0" encoding="utf-8"?>
<svg version="1.1" xmlns:xlink="http://www.w3.org/1999/xlink" width="300px" height="288px" xmlns="http://www.w3.org/2000/svg">
  <g transform="matrix(1 0 0 1 -3846 -127 )">
    <path d="M 3846 127  L 4146 127  L 4146 415  L 3846 415  L 3846 127  " fill-rule="nonzero" fill="#cccccc" stroke="none" />
    <path d="M 3866 147  L 4126 147  L 4126 395  L 3866 395  L 3866 147  " fill-rule="nonzero" fill="#ffffff" stroke="none" />
    <path d="M 4023.6 213.4  C 4011.504 213.4  4002 203.896  4002 191.8  C 4002 179.704  4011.504 170.2  4023.6 170.2  C 4035.696 170.2  4045.2 179.704  4045.2 191.8  C 4045.2 203.896  4035.696 213.4  4023.6 213.4  " fill-rule="nonzero" fill="#cccccc" stroke="none" />
    <path d="M 3873 388  L 3873 259.3  L 3934.5 200.8  L 4020.6 253.216  L 4069.8 235.9  L 4119 253.216  L 4119 388  L 3873 388  " fill-rule="nonzero" fill="#169bd5" stroke="none" />
  </g>
</svg>