<?xml version="1.0" encoding="utf-8"?>
<svg version="1.1" xmlns:xlink="http://www.w3.org/1999/xlink" width="133px" height="128px" xmlns="http://www.w3.org/2000/svg">
  <g transform="matrix(1 0 0 1 -409 -173 )">
    <path d="M 409 173  L 542 173  L 542 301  L 409 301  L 409 173  " fill-rule="nonzero" fill="#cccccc" stroke="none" />
    <path d="M 418 182  L 533 182  L 533 292  L 418 292  L 418 182  " fill-rule="nonzero" fill="#ffffff" stroke="none" />
    <path d="M 487.76 211.4  C 482.384 211.4  478.16 207.176  478.16 201.8  C 478.16 196.424  482.384 192.2  487.76 192.2  C 493.136 192.2  497.36 196.424  497.36 201.8  C 497.36 207.176  493.136 211.4  487.76 211.4  " fill-rule="nonzero" fill="#cccccc" stroke="none" />
    <path d="M 421 289  L 421 231.8  L 448.25 205.8  L 486.4 228.945864661654  L 508.2 221.4  L 530 228.945864661654  L 530 289  L 421 289  " fill-rule="nonzero" fill="#169bd5" stroke="none" />
  </g>
</svg>