<?xml version="1.0" encoding="utf-8"?>
<svg version="1.1" xmlns:xlink="http://www.w3.org/1999/xlink" width="292px" height="40px" xmlns="http://www.w3.org/2000/svg">
  <g transform="matrix(1 0 0 1 -568 -301 )">
    <path d="M 569 305  A 3 3 0 0 1 572 302 L 856 302  A 3 3 0 0 1 859 305 L 859 337  A 3 3 0 0 1 856 340 L 572 340  A 3 3 0 0 1 569 337 L 569 305  Z " fill-rule="nonzero" fill="#ffffff" stroke="none" />
    <path d="M 568.5 305  A 3.5 3.5 0 0 1 572 301.5 L 856 301.5  A 3.5 3.5 0 0 1 859.5 305 L 859.5 337  A 3.5 3.5 0 0 1 856 340.5 L 572 340.5  A 3.5 3.5 0 0 1 568.5 337 L 568.5 305  Z " stroke-width="1" stroke="#333333" fill="none" stroke-opacity="0.658823529411765" />
  </g>
</svg>