<?xml version="1.0" encoding="utf-8"?>
<svg version="1.1" xmlns:xlink="http://www.w3.org/1999/xlink" width="12px" height="12px" viewBox="677 366.5  12 12" xmlns="http://www.w3.org/2000/svg">
  <path d="M 683 366.5  C 686.36 366.5  689 369.14  689 372.5  C 689 375.86  686.36 378.5  683 378.5  C 679.64 378.5  677 375.86  677 372.5  C 677 369.14  679.64 366.5  683 366.5  Z " fill-rule="nonzero" fill="#ffffff" stroke="none" />
  <path d="M 683 367  C 686.08 367  688.5 369.42  688.5 372.5  C 688.5 375.58  686.08 378  683 378  C 679.92 378  677.5 375.58  677.5 372.5  C 677.5 369.42  679.92 367  683 367  Z " stroke-width="1" stroke="#009688" fill="none" />
  <path d="M 683 375.5  C 681.32 375.5  680 374.18  680 372.5  C 680 370.82  681.32 369.5  683 369.5  C 684.68 369.5  686 370.82  686 372.5  C 686 374.18  684.68 375.5  683 375.5  " fill-rule="nonzero" fill="#009688" stroke="none" />
</svg>