<?xml version="1.0" encoding="utf-8"?>
<svg version="1.1" xmlns:xlink="http://www.w3.org/1999/xlink" width="12px" height="12px" viewBox="568 472.5  12 12" xmlns="http://www.w3.org/2000/svg">
  <path d="M 574 472.5  C 577.36 472.5  580 475.14  580 478.5  C 580 481.86  577.36 484.5  574 484.5  C 570.64 484.5  568 481.86  568 478.5  C 568 475.14  570.64 472.5  574 472.5  Z " fill-rule="nonzero" fill="#ffffff" stroke="none" />
  <path d="M 574 473  C 577.08 473  579.5 475.42  579.5 478.5  C 579.5 481.58  577.08 484  574 484  C 570.92 484  568.5 481.58  568.5 478.5  C 568.5 475.42  570.92 473  574 473  Z " stroke-width="1" stroke="#009688" fill="none" />
  <path d="M 574 481.5  C 572.32 481.5  571 480.18  571 478.5  C 571 476.82  572.32 475.5  574 475.5  C 575.68 475.5  577 476.82  577 478.5  C 577 480.18  575.68 481.5  574 481.5  " fill-rule="nonzero" fill="#009688" stroke="none" />
</svg>