<?xml version="1.0" encoding="utf-8"?>
<svg version="1.1" xmlns:xlink="http://www.w3.org/1999/xlink" width="12px" height="12px" viewBox="761 472.5  12 12" xmlns="http://www.w3.org/2000/svg">
  <path d="M 767 472.5  C 770.36 472.5  773 475.14  773 478.5  C 773 481.86  770.36 484.5  767 484.5  C 763.64 484.5  761 481.86  761 478.5  C 761 475.14  763.64 472.5  767 472.5  Z " fill-rule="nonzero" fill="#f0f0f0" stroke="none" />
  <path d="M 767 473  C 770.08 473  772.5 475.42  772.5 478.5  C 772.5 481.58  770.08 484  767 484  C 763.92 484  761.5 481.58  761.5 478.5  C 761.5 475.42  763.92 473  767 473  Z " stroke-width="1" stroke="#009688" fill="none" />
  <path d="M 767 481.5  C 765.32 481.5  764 480.18  764 478.5  C 764 476.82  765.32 475.5  767 475.5  C 768.68 475.5  770 476.82  770 478.5  C 770 480.18  768.68 481.5  767 481.5  " fill-rule="nonzero" fill="#009688" stroke="none" />
</svg>