<?xml version="1.0" encoding="utf-8"?>
<svg version="1.1" xmlns:xlink="http://www.w3.org/1999/xlink" width="12px" height="12px" viewBox="761 513.5  12 12" xmlns="http://www.w3.org/2000/svg">
  <path d="M 767 513.5  C 770.36 513.5  773 516.14  773 519.5  C 773 522.86  770.36 525.5  767 525.5  C 763.64 525.5  761 522.86  761 519.5  C 761 516.14  763.64 513.5  767 513.5  Z " fill-rule="nonzero" fill="#ffffff" stroke="none" />
  <path d="M 767 514  C 770.08 514  772.5 516.42  772.5 519.5  C 772.5 522.58  770.08 525  767 525  C 763.92 525  761.5 522.58  761.5 519.5  C 761.5 516.42  763.92 514  767 514  Z " stroke-width="1" stroke="#009688" fill="none" />
  <path d="M 767 522.5  C 765.32 522.5  764 521.18  764 519.5  C 764 517.82  765.32 516.5  767 516.5  C 768.68 516.5  770 517.82  770 519.5  C 770 521.18  768.68 522.5  767 522.5  " fill-rule="nonzero" fill="#009688" stroke="none" />
</svg>