<?xml version="1.0" encoding="utf-8"?>
<svg version="1.1" xmlns:xlink="http://www.w3.org/1999/xlink" width="12px" height="12px" viewBox="568 2326.5  12 12" xmlns="http://www.w3.org/2000/svg">
  <path d="M 574 2326.5  C 577.36 2326.5  580 2329.14  580 2332.5  C 580 2335.86  577.36 2338.5  574 2338.5  C 570.64 2338.5  568 2335.86  568 2332.5  C 568 2329.14  570.64 2326.5  574 2326.5  Z " fill-rule="nonzero" fill="#f0f0f0" stroke="none" />
  <path d="M 574 2327  C 577.08 2327  579.5 2329.42  579.5 2332.5  C 579.5 2335.58  577.08 2338  574 2338  C 570.92 2338  568.5 2335.58  568.5 2332.5  C 568.5 2329.42  570.92 2327  574 2327  Z " stroke-width="1" stroke="#009688" fill="none" />
  <path d="M 574 2335.5  C 572.32 2335.5  571 2334.18  571 2332.5  C 571 2330.82  572.32 2329.5  574 2329.5  C 575.68 2329.5  577 2330.82  577 2332.5  C 577 2334.18  575.68 2335.5  574 2335.5  " fill-rule="nonzero" fill="#009688" stroke="none" />
</svg>