<?xml version="1.0" encoding="utf-8"?>
<svg version="1.1" xmlns:xlink="http://www.w3.org/1999/xlink" width="12px" height="12px" viewBox="677 2134.5  12 12" xmlns="http://www.w3.org/2000/svg">
  <path d="M 683 2134.5  C 686.36 2134.5  689 2137.14  689 2140.5  C 689 2143.86  686.36 2146.5  683 2146.5  C 679.64 2146.5  677 2143.86  677 2140.5  C 677 2137.14  679.64 2134.5  683 2134.5  Z " fill-rule="nonzero" fill="#ffffff" stroke="none" />
  <path d="M 683 2135  C 686.08 2135  688.5 2137.42  688.5 2140.5  C 688.5 2143.58  686.08 2146  683 2146  C 679.92 2146  677.5 2143.58  677.5 2140.5  C 677.5 2137.42  679.92 2135  683 2135  Z " stroke-width="1" stroke="#009688" fill="none" />
  <path d="M 683 2143.5  C 681.32 2143.5  680 2142.18  680 2140.5  C 680 2138.82  681.32 2137.5  683 2137.5  C 684.68 2137.5  686 2138.82  686 2140.5  C 686 2142.18  684.68 2143.5  683 2143.5  " fill-rule="nonzero" fill="#009688" stroke="none" />
</svg>