<?xml version="1.0" encoding="utf-8"?>
<svg version="1.1" xmlns:xlink="http://www.w3.org/1999/xlink" width="12px" height="12px" viewBox="761 2240.5  12 12" xmlns="http://www.w3.org/2000/svg">
  <path d="M 767 2240.5  C 770.36 2240.5  773 2243.14  773 2246.5  C 773 2249.86  770.36 2252.5  767 2252.5  C 763.64 2252.5  761 2249.86  761 2246.5  C 761 2243.14  763.64 2240.5  767 2240.5  Z " fill-rule="nonzero" fill="#ffffff" stroke="none" />
  <path d="M 767 2241  C 770.08 2241  772.5 2243.42  772.5 2246.5  C 772.5 2249.58  770.08 2252  767 2252  C 763.92 2252  761.5 2249.58  761.5 2246.5  C 761.5 2243.42  763.92 2241  767 2241  Z " stroke-width="1" stroke="#009688" fill="none" />
  <path d="M 767 2249.5  C 765.32 2249.5  764 2248.18  764 2246.5  C 764 2244.82  765.32 2243.5  767 2243.5  C 768.68 2243.5  770 2244.82  770 2246.5  C 770 2248.18  768.68 2249.5  767 2249.5  " fill-rule="nonzero" fill="#009688" stroke="none" />
</svg>