<?xml version="1.0" encoding="utf-8"?>
<svg version="1.1" xmlns:xlink="http://www.w3.org/1999/xlink" width="12px" height="12px" viewBox="2267 301.5  12 12" xmlns="http://www.w3.org/2000/svg">
  <path d="M 2273 301.5  C 2276.36 301.5  2279 304.14  2279 307.5  C 2279 310.86  2276.36 313.5  2273 313.5  C 2269.64 313.5  2267 310.86  2267 307.5  C 2267 304.14  2269.64 301.5  2273 301.5  Z " fill-rule="nonzero" fill="#ffffff" stroke="none" />
  <path d="M 2273 302  C 2276.08 302  2278.5 304.42  2278.5 307.5  C 2278.5 310.58  2276.08 313  2273 313  C 2269.92 313  2267.5 310.58  2267.5 307.5  C 2267.5 304.42  2269.92 302  2273 302  Z " stroke-width="1" stroke="#009688" fill="none" />
  <path d="M 2273 310.5  C 2271.32 310.5  2270 309.18  2270 307.5  C 2270 305.82  2271.32 304.5  2273 304.5  C 2274.68 304.5  2276 305.82  2276 307.5  C 2276 309.18  2274.68 310.5  2273 310.5  " fill-rule="nonzero" fill="#009688" stroke="none" />
</svg>