<?xml version="1.0" encoding="utf-8"?>
<svg version="1.1" xmlns:xlink="http://www.w3.org/1999/xlink" width="12px" height="12px" viewBox="4396 386.5  12 12" xmlns="http://www.w3.org/2000/svg">
  <path d="M 4402 386.5  C 4405.36 386.5  4408 389.14  4408 392.5  C 4408 395.86  4405.36 398.5  4402 398.5  C 4398.64 398.5  4396 395.86  4396 392.5  C 4396 389.14  4398.64 386.5  4402 386.5  Z " fill-rule="nonzero" fill="#f0f0f0" stroke="none" />
  <path d="M 4402 387  C 4405.08 387  4407.5 389.42  4407.5 392.5  C 4407.5 395.58  4405.08 398  4402 398  C 4398.92 398  4396.5 395.58  4396.5 392.5  C 4396.5 389.42  4398.92 387  4402 387  Z " stroke-width="1" stroke="#009688" fill="none" />
  <path d="M 4402 395.5  C 4400.32 395.5  4399 394.18  4399 392.5  C 4399 390.82  4400.32 389.5  4402 389.5  C 4403.68 389.5  4405 390.82  4405 392.5  C 4405 394.18  4403.68 395.5  4402 395.5  " fill-rule="nonzero" fill="#009688" stroke="none" />
</svg>