<?xml version="1.0" encoding="utf-8"?>
<svg version="1.1" xmlns:xlink="http://www.w3.org/1999/xlink" width="12px" height="12px" viewBox="4589 386.5  12 12" xmlns="http://www.w3.org/2000/svg">
  <path d="M 4595 386.5  C 4598.36 386.5  4601 389.14  4601 392.5  C 4601 395.86  4598.36 398.5  4595 398.5  C 4591.64 398.5  4589 395.86  4589 392.5  C 4589 389.14  4591.64 386.5  4595 386.5  Z " fill-rule="nonzero" fill="#ffffff" stroke="none" />
  <path d="M 4595 387  C 4598.08 387  4600.5 389.42  4600.5 392.5  C 4600.5 395.58  4598.08 398  4595 398  C 4591.92 398  4589.5 395.58  4589.5 392.5  C 4589.5 389.42  4591.92 387  4595 387  Z " stroke-width="1" stroke="#009688" fill="none" />
  <path d="M 4595 395.5  C 4593.32 395.5  4592 394.18  4592 392.5  C 4592 390.82  4593.32 389.5  4595 389.5  C 4596.68 389.5  4598 390.82  4598 392.5  C 4598 394.18  4596.68 395.5  4595 395.5  " fill-rule="nonzero" fill="#009688" stroke="none" />
</svg>