<?xml version="1.0" encoding="utf-8"?>
<svg version="1.1" xmlns:xlink="http://www.w3.org/1999/xlink" width="12px" height="12px" viewBox="4396 480.5  12 12" xmlns="http://www.w3.org/2000/svg">
  <path d="M 4402 480.5  C 4405.36 480.5  4408 483.14  4408 486.5  C 4408 489.86  4405.36 492.5  4402 492.5  C 4398.64 492.5  4396 489.86  4396 486.5  C 4396 483.14  4398.64 480.5  4402 480.5  Z " fill-rule="nonzero" fill="#f0f0f0" stroke="none" />
  <path d="M 4402 481  C 4405.08 481  4407.5 483.42  4407.5 486.5  C 4407.5 489.58  4405.08 492  4402 492  C 4398.92 492  4396.5 489.58  4396.5 486.5  C 4396.5 483.42  4398.92 481  4402 481  Z " stroke-width="1" stroke="#009688" fill="none" />
  <path d="M 4402 489.5  C 4400.32 489.5  4399 488.18  4399 486.5  C 4399 484.82  4400.32 483.5  4402 483.5  C 4403.68 483.5  4405 484.82  4405 486.5  C 4405 488.18  4403.68 489.5  4402 489.5  " fill-rule="nonzero" fill="#009688" stroke="none" />
</svg>