<?xml version="1.0" encoding="utf-8"?>
<svg version="1.1" xmlns:xlink="http://www.w3.org/1999/xlink" width="12px" height="12px" viewBox="4589 427.5  12 12" xmlns="http://www.w3.org/2000/svg">
  <path d="M 4595 427.5  C 4598.36 427.5  4601 430.14  4601 433.5  C 4601 436.86  4598.36 439.5  4595 439.5  C 4591.64 439.5  4589 436.86  4589 433.5  C 4589 430.14  4591.64 427.5  4595 427.5  Z " fill-rule="nonzero" fill="#ffffff" stroke="none" />
  <path d="M 4595 428  C 4598.08 428  4600.5 430.42  4600.5 433.5  C 4600.5 436.58  4598.08 439  4595 439  C 4591.92 439  4589.5 436.58  4589.5 433.5  C 4589.5 430.42  4591.92 428  4595 428  Z " stroke-width="1" stroke="#009688" fill="none" />
  <path d="M 4595 436.5  C 4593.32 436.5  4592 435.18  4592 433.5  C 4592 431.82  4593.32 430.5  4595 430.5  C 4596.68 430.5  4598 431.82  4598 433.5  C 4598 435.18  4596.68 436.5  4595 436.5  " fill-rule="nonzero" fill="#009688" stroke="none" />
</svg>