<?xml version="1.0" encoding="utf-8"?>
<svg version="1.1" xmlns:xlink="http://www.w3.org/1999/xlink" width="12px" height="12px" viewBox="4699 427.5  12 12" xmlns="http://www.w3.org/2000/svg">
  <path d="M 4705 427.5  C 4708.36 427.5  4711 430.14  4711 433.5  C 4711 436.86  4708.36 439.5  4705 439.5  C 4701.64 439.5  4699 436.86  4699 433.5  C 4699 430.14  4701.64 427.5  4705 427.5  Z " fill-rule="nonzero" fill="#ffffff" stroke="none" />
  <path d="M 4705 428  C 4708.08 428  4710.5 430.42  4710.5 433.5  C 4710.5 436.58  4708.08 439  4705 439  C 4701.92 439  4699.5 436.58  4699.5 433.5  C 4699.5 430.42  4701.92 428  4705 428  Z " stroke-width="1" stroke="#009688" fill="none" />
  <path d="M 4705 436.5  C 4703.32 436.5  4702 435.18  4702 433.5  C 4702 431.82  4703.32 430.5  4705 430.5  C 4706.68 430.5  4708 431.82  4708 433.5  C 4708 435.18  4706.68 436.5  4705 436.5  " fill-rule="nonzero" fill="#009688" stroke="none" />
</svg>