<?xml version="1.0" encoding="utf-8"?>
<svg version="1.1" xmlns:xlink="http://www.w3.org/1999/xlink" width="12px" height="12px" viewBox="4396 534.5  12 12" xmlns="http://www.w3.org/2000/svg">
  <path d="M 4402 534.5  C 4405.36 534.5  4408 537.14  4408 540.5  C 4408 543.86  4405.36 546.5  4402 546.5  C 4398.64 546.5  4396 543.86  4396 540.5  C 4396 537.14  4398.64 534.5  4402 534.5  Z " fill-rule="nonzero" fill="#f0f0f0" stroke="none" />
  <path d="M 4402 535  C 4405.08 535  4407.5 537.42  4407.5 540.5  C 4407.5 543.58  4405.08 546  4402 546  C 4398.92 546  4396.5 543.58  4396.5 540.5  C 4396.5 537.42  4398.92 535  4402 535  Z " stroke-width="1" stroke="#009688" fill="none" />
  <path d="M 4402 543.5  C 4400.32 543.5  4399 542.18  4399 540.5  C 4399 538.82  4400.32 537.5  4402 537.5  C 4403.68 537.5  4405 538.82  4405 540.5  C 4405 542.18  4403.68 543.5  4402 543.5  " fill-rule="nonzero" fill="#009688" stroke="none" />
</svg>