<?xml version="1.0" encoding="utf-8"?>
<svg version="1.1" xmlns:xlink="http://www.w3.org/1999/xlink" width="397px" height="140px" xmlns="http://www.w3.org/2000/svg">
  <g transform="matrix(1 0 0 1 -5187 -572 )">
    <path d="M 5188 576  A 3 3 0 0 1 5191 573 L 5580 573  A 3 3 0 0 1 5583 576 L 5583 708  A 3 3 0 0 1 5580 711 L 5191 711  A 3 3 0 0 1 5188 708 L 5188 576  Z " fill-rule="nonzero" fill="#ffffff" stroke="none" />
    <path d="M 5187.5 576  A 3.5 3.5 0 0 1 5191 572.5 L 5580 572.5  A 3.5 3.5 0 0 1 5583.5 576 L 5583.5 708  A 3.5 3.5 0 0 1 5580 711.5 L 5191 711.5  A 3.5 3.5 0 0 1 5187.5 708 L 5187.5 576  Z " stroke-width="1" stroke="#333333" fill="none" stroke-opacity="0.658823529411765" />
  </g>
</svg>