<?xml version="1.0" encoding="utf-8"?>
<svg version="1.1" xmlns:xlink="http://www.w3.org/1999/xlink" width="12px" height="12px" viewBox="5211 282.5  12 12" xmlns="http://www.w3.org/2000/svg">
  <path d="M 5217 282.5  C 5220.36 282.5  5223 285.14  5223 288.5  C 5223 291.86  5220.36 294.5  5217 294.5  C 5213.64 294.5  5211 291.86  5211 288.5  C 5211 285.14  5213.64 282.5  5217 282.5  Z " fill-rule="nonzero" fill="#f0f0f0" stroke="none" />
  <path d="M 5217 283  C 5220.08 283  5222.5 285.42  5222.5 288.5  C 5222.5 291.58  5220.08 294  5217 294  C 5213.92 294  5211.5 291.58  5211.5 288.5  C 5211.5 285.42  5213.92 283  5217 283  Z " stroke-width="1" stroke="#009688" fill="none" />
  <path d="M 5217 291.5  C 5215.32 291.5  5214 290.18  5214 288.5  C 5214 286.82  5215.32 285.5  5217 285.5  C 5218.68 285.5  5220 286.82  5220 288.5  C 5220 290.18  5218.68 291.5  5217 291.5  " fill-rule="nonzero" fill="#009688" stroke="none" />
</svg>