<?xml version="1.0" encoding="utf-8"?>
<svg version="1.1" xmlns:xlink="http://www.w3.org/1999/xlink" width="12px" height="11px" xmlns="http://www.w3.org/2000/svg">
  <g transform="matrix(1 0 0 1 -59 -636 )">
    <path d="M 65 636  C 68.36 636  71 638.42  71 641.5  C 71 644.58  68.36 647  65 647  C 61.64 647  59 644.58  59 641.5  C 59 638.42  61.64 636  65 636  Z " fill-rule="nonzero" fill="#000000" stroke="none" fill-opacity="0.92156862745098" />
    <path d="M 65 636.5  C 68.08 636.5  70.5 638.7  70.5 641.5  C 70.5 644.3  68.08 646.5  65 646.5  C 61.92 646.5  59.5 644.3  59.5 641.5  C 59.5 638.7  61.92 636.5  65 636.5  Z " stroke-width="1" stroke="#797979" fill="none" />
  </g>
</svg>