<?xml version="1.0" encoding="utf-8"?>
<svg version="1.1" xmlns:xlink="http://www.w3.org/1999/xlink" width="300px" height="288px" xmlns="http://www.w3.org/2000/svg">
  <g transform="matrix(1 0 0 1 -902 -127 )">
    <path d="M 902 127  L 1202 127  L 1202 415  L 902 415  L 902 127  " fill-rule="nonzero" fill="#cccccc" stroke="none" />
    <path d="M 922 147  L 1182 147  L 1182 395  L 922 395  L 922 147  " fill-rule="nonzero" fill="#ffffff" stroke="none" />
    <path d="M 1079.6 213.4  C 1067.504 213.4  1058 203.896  1058 191.8  C 1058 179.704  1067.504 170.2  1079.6 170.2  C 1091.696 170.2  1101.2 179.704  1101.2 191.8  C 1101.2 203.896  1091.696 213.4  1079.6 213.4  " fill-rule="nonzero" fill="#cccccc" stroke="none" />
    <path d="M 929 388  L 929 259.3  L 990.5 200.8  L 1076.6 253.216  L 1125.8 235.9  L 1175 253.216  L 1175 388  L 929 388  " fill-rule="nonzero" fill="#169bd5" stroke="none" />
  </g>
</svg>