<?xml version="1.0" encoding="utf-8"?>
<svg version="1.1" xmlns:xlink="http://www.w3.org/1999/xlink" width="12px" height="12px" viewBox="405 279.5  12 12" xmlns="http://www.w3.org/2000/svg">
  <path d="M 411 279.5  C 414.36 279.5  417 282.14  417 285.5  C 417 288.86  414.36 291.5  411 291.5  C 407.64 291.5  405 288.86  405 285.5  C 405 282.14  407.64 279.5  411 279.5  Z " fill-rule="nonzero" fill="#ffffff" stroke="none" />
  <path d="M 411 280  C 414.08 280  416.5 282.42  416.5 285.5  C 416.5 288.58  414.08 291  411 291  C 407.92 291  405.5 288.58  405.5 285.5  C 405.5 282.42  407.92 280  411 280  Z " stroke-width="1" stroke="#009688" fill="none" />
  <path d="M 411 288.5  C 409.32 288.5  408 287.18  408 285.5  C 408 283.82  409.32 282.5  411 282.5  C 412.68 282.5  414 283.82  414 285.5  C 414 287.18  412.68 288.5  411 288.5  " fill-rule="nonzero" fill="#009688" stroke="none" />
</svg>