<?xml version="1.0" encoding="utf-8"?>
<svg version="1.1" xmlns:xlink="http://www.w3.org/1999/xlink" width="12px" height="12px" viewBox="296 426.5  12 12" xmlns="http://www.w3.org/2000/svg">
  <path d="M 302 426.5  C 305.36 426.5  308 429.14  308 432.5  C 308 435.86  305.36 438.5  302 438.5  C 298.64 438.5  296 435.86  296 432.5  C 296 429.14  298.64 426.5  302 426.5  Z " fill-rule="nonzero" fill="#ffffff" stroke="none" />
  <path d="M 302 427  C 305.08 427  307.5 429.42  307.5 432.5  C 307.5 435.58  305.08 438  302 438  C 298.92 438  296.5 435.58  296.5 432.5  C 296.5 429.42  298.92 427  302 427  Z " stroke-width="1" stroke="#009688" fill="none" />
  <path d="M 302 435.5  C 300.32 435.5  299 434.18  299 432.5  C 299 430.82  300.32 429.5  302 429.5  C 303.68 429.5  305 430.82  305 432.5  C 305 434.18  303.68 435.5  302 435.5  " fill-rule="nonzero" fill="#009688" stroke="none" />
</svg>