<?xml version="1.0" encoding="utf-8"?>
<svg version="1.1" xmlns:xlink="http://www.w3.org/1999/xlink" width="12px" height="12px" viewBox="599 426.5  12 12" xmlns="http://www.w3.org/2000/svg">
  <path d="M 605 426.5  C 608.36 426.5  611 429.14  611 432.5  C 611 435.86  608.36 438.5  605 438.5  C 601.64 438.5  599 435.86  599 432.5  C 599 429.14  601.64 426.5  605 426.5  Z " fill-rule="nonzero" fill="#ffffff" stroke="none" />
  <path d="M 605 427  C 608.08 427  610.5 429.42  610.5 432.5  C 610.5 435.58  608.08 438  605 438  C 601.92 438  599.5 435.58  599.5 432.5  C 599.5 429.42  601.92 427  605 427  Z " stroke-width="1" stroke="#009688" fill="none" />
  <path d="M 605 435.5  C 603.32 435.5  602 434.18  602 432.5  C 602 430.82  603.32 429.5  605 429.5  C 606.68 429.5  608 430.82  608 432.5  C 608 434.18  606.68 435.5  605 435.5  " fill-rule="nonzero" fill="#009688" stroke="none" />
</svg>