<?xml version="1.0" encoding="utf-8"?>
<svg version="1.1" xmlns:xlink="http://www.w3.org/1999/xlink" width="12px" height="12px" viewBox="489 426.5  12 12" xmlns="http://www.w3.org/2000/svg">
  <path d="M 495 426.5  C 498.36 426.5  501 429.14  501 432.5  C 501 435.86  498.36 438.5  495 438.5  C 491.64 438.5  489 435.86  489 432.5  C 489 429.14  491.64 426.5  495 426.5  Z " fill-rule="nonzero" fill="#ffffff" stroke="none" />
  <path d="M 495 427  C 498.08 427  500.5 429.42  500.5 432.5  C 500.5 435.58  498.08 438  495 438  C 491.92 438  489.5 435.58  489.5 432.5  C 489.5 429.42  491.92 427  495 427  Z " stroke-width="1" stroke="#009688" fill="none" />
  <path d="M 495 435.5  C 493.32 435.5  492 434.18  492 432.5  C 492 430.82  493.32 429.5  495 429.5  C 496.68 429.5  498 430.82  498 432.5  C 498 434.18  496.68 435.5  495 435.5  " fill-rule="nonzero" fill="#009688" stroke="none" />
</svg>