<?xml version="1.0" encoding="utf-8"?>
<svg version="1.1" xmlns:xlink="http://www.w3.org/1999/xlink" width="12px" height="12px" viewBox="296 533.5  12 12" xmlns="http://www.w3.org/2000/svg">
  <path d="M 302 533.5  C 305.36 533.5  308 536.14  308 539.5  C 308 542.86  305.36 545.5  302 545.5  C 298.64 545.5  296 542.86  296 539.5  C 296 536.14  298.64 533.5  302 533.5  Z " fill-rule="nonzero" fill="#f0f0f0" stroke="none" />
  <path d="M 302 534  C 305.08 534  307.5 536.42  307.5 539.5  C 307.5 542.58  305.08 545  302 545  C 298.92 545  296.5 542.58  296.5 539.5  C 296.5 536.42  298.92 534  302 534  Z " stroke-width="1" stroke="#009688" fill="none" />
  <path d="M 302 542.5  C 300.32 542.5  299 541.18  299 539.5  C 299 537.82  300.32 536.5  302 536.5  C 303.68 536.5  305 537.82  305 539.5  C 305 541.18  303.68 542.5  302 542.5  " fill-rule="nonzero" fill="#009688" stroke="none" />
</svg>