<?xml version="1.0" encoding="utf-8"?>
<svg version="1.1" xmlns:xlink="http://www.w3.org/1999/xlink" width="12px" height="12px" viewBox="296 479.5  12 12" xmlns="http://www.w3.org/2000/svg">
  <path d="M 302 479.5  C 305.36 479.5  308 482.14  308 485.5  C 308 488.86  305.36 491.5  302 491.5  C 298.64 491.5  296 488.86  296 485.5  C 296 482.14  298.64 479.5  302 479.5  Z " fill-rule="nonzero" fill="#f0f0f0" stroke="none" />
  <path d="M 302 480  C 305.08 480  307.5 482.42  307.5 485.5  C 307.5 488.58  305.08 491  302 491  C 298.92 491  296.5 488.58  296.5 485.5  C 296.5 482.42  298.92 480  302 480  Z " stroke-width="1" stroke="#009688" fill="none" />
  <path d="M 302 488.5  C 300.32 488.5  299 487.18  299 485.5  C 299 483.82  300.32 482.5  302 482.5  C 303.68 482.5  305 483.82  305 485.5  C 305 487.18  303.68 488.5  302 488.5  " fill-rule="nonzero" fill="#009688" stroke="none" />
</svg>