<?xml version="1.0" encoding="utf-8"?>
<svg version="1.1" xmlns:xlink="http://www.w3.org/1999/xlink" width="12px" height="12px" viewBox="296 385.5  12 12" xmlns="http://www.w3.org/2000/svg">
  <path d="M 302 385.5  C 305.36 385.5  308 388.14  308 391.5  C 308 394.86  305.36 397.5  302 397.5  C 298.64 397.5  296 394.86  296 391.5  C 296 388.14  298.64 385.5  302 385.5  Z " fill-rule="nonzero" fill="#f0f0f0" stroke="none" />
  <path d="M 302 386  C 305.08 386  307.5 388.42  307.5 391.5  C 307.5 394.58  305.08 397  302 397  C 298.92 397  296.5 394.58  296.5 391.5  C 296.5 388.42  298.92 386  302 386  Z " stroke-width="1" stroke="#009688" fill="none" />
  <path d="M 302 394.5  C 300.32 394.5  299 393.18  299 391.5  C 299 389.82  300.32 388.5  302 388.5  C 303.68 388.5  305 389.82  305 391.5  C 305 393.18  303.68 394.5  302 394.5  " fill-rule="nonzero" fill="#009688" stroke="none" />
</svg>