<?xml version="1.0" encoding="utf-8"?>
<svg version="1.1" xmlns:xlink="http://www.w3.org/1999/xlink" width="12px" height="12px" viewBox="489 385.5  12 12" xmlns="http://www.w3.org/2000/svg">
  <path d="M 495 385.5  C 498.36 385.5  501 388.14  501 391.5  C 501 394.86  498.36 397.5  495 397.5  C 491.64 397.5  489 394.86  489 391.5  C 489 388.14  491.64 385.5  495 385.5  Z " fill-rule="nonzero" fill="#f0f0f0" stroke="none" />
  <path d="M 495 386  C 498.08 386  500.5 388.42  500.5 391.5  C 500.5 394.58  498.08 397  495 397  C 491.92 397  489.5 394.58  489.5 391.5  C 489.5 388.42  491.92 386  495 386  Z " stroke-width="1" stroke="#009688" fill="none" />
  <path d="M 495 394.5  C 493.32 394.5  492 393.18  492 391.5  C 492 389.82  493.32 388.5  495 388.5  C 496.68 388.5  498 389.82  498 391.5  C 498 393.18  496.68 394.5  495 394.5  " fill-rule="nonzero" fill="#009688" stroke="none" />
</svg>