<?xml version="1.0" encoding="utf-8"?>
<svg version="1.1" xmlns:xlink="http://www.w3.org/1999/xlink" width="396px" height="140px" xmlns="http://www.w3.org/2000/svg">
  <g transform="matrix(1 0 0 1 -281 -680 )">
    <path d="M 282 684  A 3 3 0 0 1 285 681 L 673 681  A 3 3 0 0 1 676 684 L 676 816  A 3 3 0 0 1 673 819 L 285 819  A 3 3 0 0 1 282 816 L 282 684  Z " fill-rule="nonzero" fill="#ffffff" stroke="none" />
    <path d="M 281.5 684  A 3.5 3.5 0 0 1 285 680.5 L 673 680.5  A 3.5 3.5 0 0 1 676.5 684 L 676.5 816  A 3.5 3.5 0 0 1 673 819.5 L 285 819.5  A 3.5 3.5 0 0 1 281.5 816 L 281.5 684  Z " stroke-width="1" stroke="#333333" fill="none" stroke-opacity="0.658823529411765" />
  </g>
</svg>