<?xml version="1.0" encoding="utf-8"?>
<svg version="1.1" xmlns:xlink="http://www.w3.org/1999/xlink" width="12px" height="12px" viewBox="1111 276.5  12 12" xmlns="http://www.w3.org/2000/svg">
  <path d="M 1117 276.5  C 1120.36 276.5  1123 279.14  1123 282.5  C 1123 285.86  1120.36 288.5  1117 288.5  C 1113.64 288.5  1111 285.86  1111 282.5  C 1111 279.14  1113.64 276.5  1117 276.5  Z " fill-rule="nonzero" fill="#f0f0f0" stroke="none" />
  <path d="M 1117 277  C 1120.08 277  1122.5 279.42  1122.5 282.5  C 1122.5 285.58  1120.08 288  1117 288  C 1113.92 288  1111.5 285.58  1111.5 282.5  C 1111.5 279.42  1113.92 277  1117 277  Z " stroke-width="1" stroke="#009688" fill="none" />
  <path d="M 1117 285.5  C 1115.32 285.5  1114 284.18  1114 282.5  C 1114 280.82  1115.32 279.5  1117 279.5  C 1118.68 279.5  1120 280.82  1120 282.5  C 1120 284.18  1118.68 285.5  1117 285.5  " fill-rule="nonzero" fill="#009688" stroke="none" />
</svg>