<?xml version="1.0" encoding="utf-8"?>
<svg version="1.1" xmlns:xlink="http://www.w3.org/1999/xlink" width="12px" height="12px" viewBox="1207 276.5  12 12" xmlns="http://www.w3.org/2000/svg">
  <path d="M 1213 276.5  C 1216.36 276.5  1219 279.14  1219 282.5  C 1219 285.86  1216.36 288.5  1213 288.5  C 1209.64 288.5  1207 285.86  1207 282.5  C 1207 279.14  1209.64 276.5  1213 276.5  Z " fill-rule="nonzero" fill="#ffffff" stroke="none" />
  <path d="M 1213 277  C 1216.08 277  1218.5 279.42  1218.5 282.5  C 1218.5 285.58  1216.08 288  1213 288  C 1209.92 288  1207.5 285.58  1207.5 282.5  C 1207.5 279.42  1209.92 277  1213 277  Z " stroke-width="1" stroke="#009688" fill="none" />
  <path d="M 1213 285.5  C 1211.32 285.5  1210 284.18  1210 282.5  C 1210 280.82  1211.32 279.5  1213 279.5  C 1214.68 279.5  1216 280.82  1216 282.5  C 1216 284.18  1214.68 285.5  1213 285.5  " fill-rule="nonzero" fill="#009688" stroke="none" />
</svg>