<?xml version="1.0" encoding="utf-8"?>
<svg version="1.1" xmlns:xlink="http://www.w3.org/1999/xlink" width="12px" height="12px" viewBox="581 366.5  12 12" xmlns="http://www.w3.org/2000/svg">
  <path d="M 587 366.5  C 590.36 366.5  593 369.14  593 372.5  C 593 375.86  590.36 378.5  587 378.5  C 583.64 378.5  581 375.86  581 372.5  C 581 369.14  583.64 366.5  587 366.5  Z " fill-rule="nonzero" fill="#ffffff" stroke="none" />
  <path d="M 587 367  C 590.08 367  592.5 369.42  592.5 372.5  C 592.5 375.58  590.08 378  587 378  C 583.92 378  581.5 375.58  581.5 372.5  C 581.5 369.42  583.92 367  587 367  Z " stroke-width="1" stroke="#009688" fill="none" />
  <path d="M 587 375.5  C 585.32 375.5  584 374.18  584 372.5  C 584 370.82  585.32 369.5  587 369.5  C 588.68 369.5  590 370.82  590 372.5  C 590 374.18  588.68 375.5  587 375.5  " fill-rule="nonzero" fill="#009688" stroke="none" />
</svg>