<?xml version="1.0" encoding="utf-8"?>
<svg version="1.1" xmlns:xlink="http://www.w3.org/1999/xlink" width="12px" height="12px" viewBox="904 472.5  12 12" xmlns="http://www.w3.org/2000/svg">
  <path d="M 910 472.5  C 913.36 472.5  916 475.14  916 478.5  C 916 481.86  913.36 484.5  910 484.5  C 906.64 484.5  904 481.86  904 478.5  C 904 475.14  906.64 472.5  910 472.5  Z " fill-rule="nonzero" fill="#f0f0f0" stroke="none" />
  <path d="M 910 473  C 913.08 473  915.5 475.42  915.5 478.5  C 915.5 481.58  913.08 484  910 484  C 906.92 484  904.5 481.58  904.5 478.5  C 904.5 475.42  906.92 473  910 473  Z " stroke-width="1" stroke="#009688" fill="none" />
  <path d="M 910 481.5  C 908.32 481.5  907 480.18  907 478.5  C 907 476.82  908.32 475.5  910 475.5  C 911.68 475.5  913 476.82  913 478.5  C 913 480.18  911.68 481.5  910 481.5  " fill-rule="nonzero" fill="#009688" stroke="none" />
</svg>