<?xml version="1.0" encoding="utf-8"?>
<svg version="1.1" xmlns:xlink="http://www.w3.org/1999/xlink" width="12px" height="12px" viewBox="568 513.5  12 12" xmlns="http://www.w3.org/2000/svg">
  <path d="M 574 513.5  C 577.36 513.5  580 516.14  580 519.5  C 580 522.86  577.36 525.5  574 525.5  C 570.64 525.5  568 522.86  568 519.5  C 568 516.14  570.64 513.5  574 513.5  Z " fill-rule="nonzero" fill="#f0f0f0" stroke="none" />
  <path d="M 574 514  C 577.08 514  579.5 516.42  579.5 519.5  C 579.5 522.58  577.08 525  574 525  C 570.92 525  568.5 522.58  568.5 519.5  C 568.5 516.42  570.92 514  574 514  Z " stroke-width="1" stroke="#009688" fill="none" />
  <path d="M 574 522.5  C 572.32 522.5  571 521.18  571 519.5  C 571 517.82  572.32 516.5  574 516.5  C 575.68 516.5  577 517.82  577 519.5  C 577 521.18  575.68 522.5  574 522.5  " fill-rule="nonzero" fill="#009688" stroke="none" />
</svg>