<?xml version="1.0" encoding="utf-8"?>
<svg version="1.1" xmlns:xlink="http://www.w3.org/1999/xlink" width="12px" height="12px" viewBox="904 513.5  12 12" xmlns="http://www.w3.org/2000/svg">
  <path d="M 910 513.5  C 913.36 513.5  916 516.14  916 519.5  C 916 522.86  913.36 525.5  910 525.5  C 906.64 525.5  904 522.86  904 519.5  C 904 516.14  906.64 513.5  910 513.5  Z " fill-rule="nonzero" fill="#f0f0f0" stroke="none" />
  <path d="M 910 514  C 913.08 514  915.5 516.42  915.5 519.5  C 915.5 522.58  913.08 525  910 525  C 906.92 525  904.5 522.58  904.5 519.5  C 904.5 516.42  906.92 514  910 514  Z " stroke-width="1" stroke="#009688" fill="none" />
  <path d="M 910 522.5  C 908.32 522.5  907 521.18  907 519.5  C 907 517.82  908.32 516.5  910 516.5  C 911.68 516.5  913 517.82  913 519.5  C 913 521.18  911.68 522.5  910 522.5  " fill-rule="nonzero" fill="#009688" stroke="none" />
</svg>