<?xml version="1.0" encoding="utf-8"?>
<svg version="1.1" xmlns:xlink="http://www.w3.org/1999/xlink" width="12px" height="12px" viewBox="568 558.5  12 12" xmlns="http://www.w3.org/2000/svg">
  <path d="M 574 558.5  C 577.36 558.5  580 561.14  580 564.5  C 580 567.86  577.36 570.5  574 570.5  C 570.64 570.5  568 567.86  568 564.5  C 568 561.14  570.64 558.5  574 558.5  Z " fill-rule="nonzero" fill="#f0f0f0" stroke="none" />
  <path d="M 574 559  C 577.08 559  579.5 561.42  579.5 564.5  C 579.5 567.58  577.08 570  574 570  C 570.92 570  568.5 567.58  568.5 564.5  C 568.5 561.42  570.92 559  574 559  Z " stroke-width="1" stroke="#009688" fill="none" />
  <path d="M 574 567.5  C 572.32 567.5  571 566.18  571 564.5  C 571 562.82  572.32 561.5  574 561.5  C 575.68 561.5  577 562.82  577 564.5  C 577 566.18  575.68 567.5  574 567.5  " fill-rule="nonzero" fill="#009688" stroke="none" />
</svg>