<?xml version="1.0" encoding="utf-8"?>
<svg version="1.1" xmlns:xlink="http://www.w3.org/1999/xlink" width="12px" height="12px" viewBox="904 2240.5  12 12" xmlns="http://www.w3.org/2000/svg">
  <path d="M 910 2240.5  C 913.36 2240.5  916 2243.14  916 2246.5  C 916 2249.86  913.36 2252.5  910 2252.5  C 906.64 2252.5  904 2249.86  904 2246.5  C 904 2243.14  906.64 2240.5  910 2240.5  Z " fill-rule="nonzero" fill="#ffffff" stroke="none" />
  <path d="M 910 2241  C 913.08 2241  915.5 2243.42  915.5 2246.5  C 915.5 2249.58  913.08 2252  910 2252  C 906.92 2252  904.5 2249.58  904.5 2246.5  C 904.5 2243.42  906.92 2241  910 2241  Z " stroke-width="1" stroke="#009688" fill="none" />
  <path d="M 910 2249.5  C 908.32 2249.5  907 2248.18  907 2246.5  C 907 2244.82  908.32 2243.5  910 2243.5  C 911.68 2243.5  913 2244.82  913 2246.5  C 913 2248.18  911.68 2249.5  910 2249.5  " fill-rule="nonzero" fill="#009688" stroke="none" />
</svg>