<?xml version="1.0" encoding="utf-8"?>
<svg version="1.1" xmlns:xlink="http://www.w3.org/1999/xlink" width="12px" height="12px" viewBox="581 2134.5  12 12" xmlns="http://www.w3.org/2000/svg">
  <path d="M 587 2134.5  C 590.36 2134.5  593 2137.14  593 2140.5  C 593 2143.86  590.36 2146.5  587 2146.5  C 583.64 2146.5  581 2143.86  581 2140.5  C 581 2137.14  583.64 2134.5  587 2134.5  Z " fill-rule="nonzero" fill="#ffffff" stroke="none" />
  <path d="M 587 2135  C 590.08 2135  592.5 2137.42  592.5 2140.5  C 592.5 2143.58  590.08 2146  587 2146  C 583.92 2146  581.5 2143.58  581.5 2140.5  C 581.5 2137.42  583.92 2135  587 2135  Z " stroke-width="1" stroke="#009688" fill="none" />
  <path d="M 587 2143.5  C 585.32 2143.5  584 2142.18  584 2140.5  C 584 2138.82  585.32 2137.5  587 2137.5  C 588.68 2137.5  590 2138.82  590 2140.5  C 590 2142.18  588.68 2143.5  587 2143.5  " fill-rule="nonzero" fill="#009688" stroke="none" />
</svg>