<?xml version="1.0" encoding="utf-8"?>
<svg version="1.1" xmlns:xlink="http://www.w3.org/1999/xlink" width="12px" height="12px" viewBox="761 2281.5  12 12" xmlns="http://www.w3.org/2000/svg">
  <path d="M 767 2281.5  C 770.36 2281.5  773 2284.14  773 2287.5  C 773 2290.86  770.36 2293.5  767 2293.5  C 763.64 2293.5  761 2290.86  761 2287.5  C 761 2284.14  763.64 2281.5  767 2281.5  Z " fill-rule="nonzero" fill="#f0f0f0" stroke="none" />
  <path d="M 767 2282  C 770.08 2282  772.5 2284.42  772.5 2287.5  C 772.5 2290.58  770.08 2293  767 2293  C 763.92 2293  761.5 2290.58  761.5 2287.5  C 761.5 2284.42  763.92 2282  767 2282  Z " stroke-width="1" stroke="#009688" fill="none" />
  <path d="M 767 2290.5  C 765.32 2290.5  764 2289.18  764 2287.5  C 764 2285.82  765.32 2284.5  767 2284.5  C 768.68 2284.5  770 2285.82  770 2287.5  C 770 2289.18  768.68 2290.5  767 2290.5  " fill-rule="nonzero" fill="#009688" stroke="none" />
</svg>