<?xml version="1.0" encoding="utf-8"?>
<svg version="1.1" xmlns:xlink="http://www.w3.org/1999/xlink" width="12px" height="12px" viewBox="2363 301.5  12 12" xmlns="http://www.w3.org/2000/svg">
  <path d="M 2369 301.5  C 2372.36 301.5  2375 304.14  2375 307.5  C 2375 310.86  2372.36 313.5  2369 313.5  C 2365.64 313.5  2363 310.86  2363 307.5  C 2363 304.14  2365.64 301.5  2369 301.5  Z " fill-rule="nonzero" fill="#f0f0f0" stroke="none" />
  <path d="M 2369 302  C 2372.08 302  2374.5 304.42  2374.5 307.5  C 2374.5 310.58  2372.08 313  2369 313  C 2365.92 313  2363.5 310.58  2363.5 307.5  C 2363.5 304.42  2365.92 302  2369 302  Z " stroke-width="1" stroke="#009688" fill="none" />
  <path d="M 2369 310.5  C 2367.32 310.5  2366 309.18  2366 307.5  C 2366 305.82  2367.32 304.5  2369 304.5  C 2370.68 304.5  2372 305.82  2372 307.5  C 2372 309.18  2370.68 310.5  2369 310.5  " fill-rule="nonzero" fill="#009688" stroke="none" />
</svg>