<?xml version="1.0" encoding="utf-8"?>
<svg version="1.1" xmlns:xlink="http://www.w3.org/1999/xlink" width="12px" height="11px" xmlns="http://www.w3.org/2000/svg">
  <g transform="matrix(1 0 0 1 -2938 -507 )">
    <path d="M 2944 507  C 2947.36 507  2950 509.42  2950 512.5  C 2950 515.58  2947.36 518  2944 518  C 2940.64 518  2938 515.58  2938 512.5  C 2938 509.42  2940.64 507  2944 507  Z " fill-rule="nonzero" fill="#000000" stroke="none" fill-opacity="0.92156862745098" />
    <path d="M 2944 507.5  C 2947.08 507.5  2949.5 509.7  2949.5 512.5  C 2949.5 515.3  2947.08 517.5  2944 517.5  C 2940.92 517.5  2938.5 515.3  2938.5 512.5  C 2938.5 509.7  2940.92 507.5  2944 507.5  Z " stroke-width="1" stroke="#797979" fill="none" />
  </g>
</svg>