<?xml version="1.0" encoding="utf-8"?>
<svg version="1.1" xmlns:xlink="http://www.w3.org/1999/xlink" width="12px" height="12px" viewBox="2394 1260.5  12 12" xmlns="http://www.w3.org/2000/svg">
  <path d="M 2400 1260.5  C 2403.36 1260.5  2406 1263.14  2406 1266.5  C 2406 1269.86  2403.36 1272.5  2400 1272.5  C 2396.64 1272.5  2394 1269.86  2394 1266.5  C 2394 1263.14  2396.64 1260.5  2400 1260.5  Z " fill-rule="nonzero" fill="#ffffff" stroke="none" />
  <path d="M 2400 1261  C 2403.08 1261  2405.5 1263.42  2405.5 1266.5  C 2405.5 1269.58  2403.08 1272  2400 1272  C 2396.92 1272  2394.5 1269.58  2394.5 1266.5  C 2394.5 1263.42  2396.92 1261  2400 1261  Z " stroke-width="1" stroke="#009688" fill="none" />
  <path d="M 2400 1269.5  C 2398.32 1269.5  2397 1268.18  2397 1266.5  C 2397 1264.82  2398.32 1263.5  2400 1263.5  C 2401.68 1263.5  2403 1264.82  2403 1266.5  C 2403 1268.18  2401.68 1269.5  2400 1269.5  " fill-rule="nonzero" fill="#009688" stroke="none" />
</svg>