<?xml version="1.0" encoding="utf-8"?>
<svg version="1.1" xmlns:xlink="http://www.w3.org/1999/xlink" width="479px" height="109px" xmlns="http://www.w3.org/2000/svg">
  <g transform="matrix(1 0 0 1 -2202 -1789 )">
    <path d="M 2203 1793  A 3 3 0 0 1 2206 1790 L 2677 1790  A 3 3 0 0 1 2680 1793 L 2680 1894  A 3 3 0 0 1 2677 1897 L 2206 1897  A 3 3 0 0 1 2203 1894 L 2203 1793  Z " fill-rule="nonzero" fill="#ffffff" stroke="none" />
    <path d="M 2202.5 1793  A 3.5 3.5 0 0 1 2206 1789.5 L 2677 1789.5  A 3.5 3.5 0 0 1 2680.5 1793 L 2680.5 1894  A 3.5 3.5 0 0 1 2677 1897.5 L 2206 1897.5  A 3.5 3.5 0 0 1 2202.5 1894 L 2202.5 1793  Z " stroke-width="1" stroke="#333333" fill="none" stroke-opacity="0.658823529411765" />
  </g>
</svg>