<?xml version="1.0" encoding="utf-8"?>
<svg version="1.1" xmlns:xlink="http://www.w3.org/1999/xlink" width="89px" height="88px" xmlns="http://www.w3.org/2000/svg">
  <g transform="matrix(1 0 0 1 -2290 -4245 )">
    <path d="M 2290 4245  L 2379 4245  L 2379 4333  L 2290 4333  L 2290 4245  " fill-rule="nonzero" fill="#cccccc" stroke="none" />
    <path d="M 2296 4251  L 2373 4251  L 2373 4327  L 2296 4327  L 2296 4251  " fill-rule="nonzero" fill="#ffffff" stroke="none" />
    <path d="M 2342.88 4271.4  C 2339.184 4271.4  2336.28 4268.496  2336.28 4264.8  C 2336.28 4261.104  2339.184 4258.2  2342.88 4258.2  C 2346.576 4258.2  2349.48 4261.104  2349.48 4264.8  C 2349.48 4268.496  2346.576 4271.4  2342.88 4271.4  " fill-rule="nonzero" fill="#cccccc" stroke="none" />
    <path d="M 2298 4325  L 2298 4285.4  L 2316.25 4267.4  L 2341.8 4282.28539325843  L 2356.4 4278.2  L 2371 4282.28539325843  L 2371 4325  L 2298 4325  " fill-rule="nonzero" fill="#169bd5" stroke="none" />
  </g>
</svg>