<?xml version="1.0" encoding="utf-8"?>
<svg version="1.1" xmlns:xlink="http://www.w3.org/1999/xlink" width="292px" height="40px" xmlns="http://www.w3.org/2000/svg">
  <g transform="matrix(1 0 0 1 -2259 -4663 )">
    <path d="M 2260 4667  A 3 3 0 0 1 2263 4664 L 2547 4664  A 3 3 0 0 1 2550 4667 L 2550 4699  A 3 3 0 0 1 2547 4702 L 2263 4702  A 3 3 0 0 1 2260 4699 L 2260 4667  Z " fill-rule="nonzero" fill="#ffffff" stroke="none" />
    <path d="M 2259.5 4667  A 3.5 3.5 0 0 1 2263 4663.5 L 2547 4663.5  A 3.5 3.5 0 0 1 2550.5 4667 L 2550.5 4699  A 3.5 3.5 0 0 1 2547 4702.5 L 2263 4702.5  A 3.5 3.5 0 0 1 2259.5 4699 L 2259.5 4667  Z " stroke-width="1" stroke="#333333" fill="none" stroke-opacity="0.658823529411765" />
  </g>
</svg>