<?xml version="1.0" encoding="utf-8"?>
<svg version="1.1" xmlns:xlink="http://www.w3.org/1999/xlink" width="50px" height="29px" xmlns="http://www.w3.org/2000/svg">
  <g transform="matrix(1 0 0 1 -2506 -4547 )">
    <path d="M 49.498997995992 2.98969072164948  C 49.8329993319973 3.32187857961053  50 3.70389461626575  50 4.13573883161512  C 50 4.56758304696449  49.8329993319973 4.9495990836197  49.498997995992 5.28178694158076  L 26.1523046092184 28.5017182130584  C 25.8183032732131 28.8339060710195  25.4342017368069 29  25 29  C 24.5657982631931 29  24.1816967267869 28.8339060710195  23.8476953907816 28.5017182130584  L 0.501002004008016 5.28178694158076  C 0.167000668002672 4.9495990836197  0 4.56758304696449  0 4.13573883161512  C 0 3.70389461626575  0.167000668002672 3.32187857961053  0.501002004008016 2.98969072164948  L 3.0060120240481 0.498281786941582  C 3.34001336005344 0.166093928980523  3.72411489645959 0  4.15831663326653 0  C 4.59251837007348 0  4.97661990647963 0.166093928980523  5.31062124248497 0.498281786941582  L 25 20.0807560137457  L 44.689378757515 0.498281786941582  C 45.0233800935204 0.166093928980523  45.4074816299265 0  45.8416833667335 0  C 46.2758851035404 0  46.6599866399466 0.166093928980523  46.9939879759519 0.498281786941582  L 49.498997995992 2.98969072164948  Z " fill-rule="nonzero" fill="#000000" stroke="none" transform="matrix(1 0 0 1 2506 4547 )" />
  </g>
</svg>