<?xml version="1.0" encoding="utf-8"?>
<svg version="1.1" xmlns:xlink="http://www.w3.org/1999/xlink" width="12px" height="12px" viewBox="2186 2672.5  12 12" xmlns="http://www.w3.org/2000/svg">
  <path d="M 2192 2672.5  C 2195.36 2672.5  2198 2675.14  2198 2678.5  C 2198 2681.86  2195.36 2684.5  2192 2684.5  C 2188.64 2684.5  2186 2681.86  2186 2678.5  C 2186 2675.14  2188.64 2672.5  2192 2672.5  Z " fill-rule="nonzero" fill="#ffffff" stroke="none" />
  <path d="M 2192 2673  C 2195.08 2673  2197.5 2675.42  2197.5 2678.5  C 2197.5 2681.58  2195.08 2684  2192 2684  C 2188.92 2684  2186.5 2681.58  2186.5 2678.5  C 2186.5 2675.42  2188.92 2673  2192 2673  Z " stroke-width="1" stroke="#009688" fill="none" />
  <path d="M 2192 2681.5  C 2190.32 2681.5  2189 2680.18  2189 2678.5  C 2189 2676.82  2190.32 2675.5  2192 2675.5  C 2193.68 2675.5  2195 2676.82  2195 2678.5  C 2195 2680.18  2193.68 2681.5  2192 2681.5  " fill-rule="nonzero" fill="#009688" stroke="none" />
</svg>