<?xml version="1.0" encoding="utf-8"?>
<svg version="1.1" xmlns:xlink="http://www.w3.org/1999/xlink" width="152px" height="88px" xmlns="http://www.w3.org/2000/svg">
  <g transform="matrix(1 0 0 1 -2200 -3335 )">
    <path d="M 2200 3335  L 2352 3335  L 2352 3423  L 2200 3423  L 2200 3335  " fill-rule="nonzero" fill="#cccccc" stroke="none" />
    <path d="M 2206 3341  L 2346 3341  L 2346 3417  L 2206 3417  L 2206 3341  " fill-rule="nonzero" fill="#ffffff" stroke="none" />
    <path d="M 2285.64 3361.4  C 2281.944 3361.4  2279.04 3358.496  2279.04 3354.8  C 2279.04 3351.104  2281.944 3348.2  2285.64 3348.2  C 2289.336 3348.2  2292.24 3351.104  2292.24 3354.8  C 2292.24 3358.496  2289.336 3361.4  2285.64 3361.4  " fill-rule="nonzero" fill="#cccccc" stroke="none" />
    <path d="M 2208 3415  L 2208 3375.4  L 2242 3357.4  L 2289.6 3389.98947368421  L 2316.8 3368.2  L 2344 3389.98947368421  L 2344 3415  L 2208 3415  " fill-rule="nonzero" fill="#169bd5" stroke="none" />
  </g>
</svg>