<?xml version="1.0" encoding="utf-8"?>
<svg version="1.1" xmlns:xlink="http://www.w3.org/1999/xlink" width="479px" height="155px" xmlns="http://www.w3.org/2000/svg">
  <g transform="matrix(1 0 0 1 -2129 -1068 )">
    <path d="M 2130 1072  A 3 3 0 0 1 2133 1069 L 2604 1069  A 3 3 0 0 1 2607 1072 L 2607 1219  A 3 3 0 0 1 2604 1222 L 2133 1222  A 3 3 0 0 1 2130 1219 L 2130 1072  Z " fill-rule="nonzero" fill="#ffffff" stroke="none" />
    <path d="M 2129.5 1072  A 3.5 3.5 0 0 1 2133 1068.5 L 2604 1068.5  A 3.5 3.5 0 0 1 2607.5 1072 L 2607.5 1219  A 3.5 3.5 0 0 1 2604 1222.5 L 2133 1222.5  A 3.5 3.5 0 0 1 2129.5 1219 L 2129.5 1072  Z " stroke-width="1" stroke="#333333" fill="none" stroke-opacity="0.658823529411765" />
  </g>
</svg>