<?xml version="1.0" encoding="utf-8"?>
<svg version="1.1" xmlns:xlink="http://www.w3.org/1999/xlink" width="227px" height="40px" xmlns="http://www.w3.org/2000/svg">
  <g transform="matrix(1 0 0 1 -2495 -820 )">
    <path d="M 2496 824  A 3 3 0 0 1 2499 821 L 2718 821  A 3 3 0 0 1 2721 824 L 2721 856  A 3 3 0 0 1 2718 859 L 2499 859  A 3 3 0 0 1 2496 856 L 2496 824  Z " fill-rule="nonzero" fill="#ffffff" stroke="none" />
    <path d="M 2495.5 824  A 3.5 3.5 0 0 1 2499 820.5 L 2718 820.5  A 3.5 3.5 0 0 1 2721.5 824 L 2721.5 856  A 3.5 3.5 0 0 1 2718 859.5 L 2499 859.5  A 3.5 3.5 0 0 1 2495.5 856 L 2495.5 824  Z " stroke-width="1" stroke="#333333" fill="none" stroke-opacity="0.658823529411765" />
  </g>
</svg>